<?xml version="1.0"?>
<svg xmlns="http://www.w3.org/2000/svg" xmlns:xlink="http://www.w3.org/1999/xlink" xmlns:svgjs="http://svgjs.com/svgjs" version="1.1" width="512" height="512" x="0" y="0" viewBox="0 0 469.333 469.333" style="enable-background:new 0 0 512 512" xml:space="preserve" class=""><g>
<g xmlns="http://www.w3.org/2000/svg">
	<g>
		<path d="M448,181.12H345.813l-93.44-139.84c-4.053-6.187-10.88-9.067-17.707-9.067S221.013,35.2,216.96,41.28l-93.44,139.84    H21.333C9.6,181.12,0,190.72,0,202.453c0,2.027,0.32,3.947,0.747,5.76l54.08,197.76C59.84,423.893,76.373,437.12,96,437.12    h277.333c19.627,0,36.16-13.227,41.067-31.253l54.08-197.76c0.533-1.707,0.853-3.627,0.853-5.653    C469.333,190.72,459.733,181.12,448,181.12z M234.667,351.787c-23.573,0-42.667-19.093-42.667-42.667    c0-23.573,19.093-42.667,42.667-42.667s42.667,19.093,42.667,42.667C277.333,332.693,258.24,351.787,234.667,351.787z     M170.667,181.12l64-93.867l64,93.867H170.667z" fill="#393d50" data-original="#000000" style="" class=""/>
	</g>
</g>
<g xmlns="http://www.w3.org/2000/svg">
</g>
<g xmlns="http://www.w3.org/2000/svg">
</g>
<g xmlns="http://www.w3.org/2000/svg">
</g>
<g xmlns="http://www.w3.org/2000/svg">
</g>
<g xmlns="http://www.w3.org/2000/svg">
</g>
<g xmlns="http://www.w3.org/2000/svg">
</g>
<g xmlns="http://www.w3.org/2000/svg">
</g>
<g xmlns="http://www.w3.org/2000/svg">
</g>
<g xmlns="http://www.w3.org/2000/svg">
</g>
<g xmlns="http://www.w3.org/2000/svg">
</g>
<g xmlns="http://www.w3.org/2000/svg">
</g>
<g xmlns="http://www.w3.org/2000/svg">
</g>
<g xmlns="http://www.w3.org/2000/svg">
</g>
<g xmlns="http://www.w3.org/2000/svg">
</g>
<g xmlns="http://www.w3.org/2000/svg">
</g>
</g></svg>
